<svg width="8" height="8" viewBox="0 0 8 8" fill="none" xmlns="http://www.w3.org/2000/svg">
<mask id="path-1-inside-1_4406_1668" fill="white">
<path fill-rule="evenodd" clip-rule="evenodd" d="M7.84731 4.14272C7.84903 4.09536 7.8499 4.04778 7.8499 3.99999C7.8499 3.76529 7.8289 3.5355 7.78868 3.31238H3.22927L7.84731 4.14272ZM7.83774 4.30831C7.8352 4.34038 7.83226 4.37234 7.82894 4.40418H0.170865C0.157006 4.27134 0.149902 4.1365 0.149902 3.99999C0.149902 1.8737 1.87361 0.149994 3.9999 0.149994C5.83318 0.149994 7.36719 1.43136 7.75516 3.14734H2.30837L2.29373 3.31141L7.83774 4.30831ZM0.191691 4.56922H7.80811C7.533 6.4256 5.9328 7.84999 3.9999 7.84999C2.58605 7.84999 1.3502 7.08787 0.680751 5.95203H5.48611L5.50369 5.78992L0.195609 4.59505C0.194274 4.58645 0.192968 4.57784 0.191691 4.56922ZM0.226988 4.77035C0.300099 5.13034 0.42344 5.47209 0.589379 5.78797H4.74685L0.226988 4.77035Z"/>
</mask>
<path d="M7.84731 4.14272L7.74997 4.68404L8.37385 4.79622L8.39694 4.16275L7.84731 4.14272ZM7.78868 3.31238L8.32995 3.21479L8.24838 2.76238H7.78868V3.31238ZM3.22927 3.31238V2.76238L3.13194 3.8537L3.22927 3.31238ZM7.83774 4.30831L8.38602 4.35176L8.42537 3.85516L7.93508 3.76699L7.83774 4.30831ZM7.82894 4.40418V4.95418H8.32454L8.37597 4.46125L7.82894 4.40418ZM0.170865 4.40418L-0.376166 4.46125L-0.32474 4.95418H0.170865V4.40418ZM7.75516 3.14734V3.69734H8.44339L8.29162 3.02605L7.75516 3.14734ZM2.30837 3.14734V2.59734H1.80529L1.76055 3.09843L2.30837 3.14734ZM2.29373 3.31141L1.7459 3.26249L1.70116 3.76367L2.19639 3.85272L2.29373 3.31141ZM7.80811 4.56922L8.35217 4.64985L8.44563 4.01922H7.80811V4.56922ZM0.191691 4.56922V4.01922H-0.445827L-0.352367 4.64985L0.191691 4.56922ZM0.680751 5.95203V5.40203H-0.28183L0.206924 6.2313L0.680751 5.95203ZM5.48611 5.95203V6.50203H5.97969L6.0329 6.01132L5.48611 5.95203ZM5.50369 5.78992L6.05048 5.84921L6.1034 5.36116L5.62447 5.25335L5.50369 5.78992ZM0.195609 4.59505L-0.347888 4.67938L-0.290478 5.0494L0.0748246 5.13163L0.195609 4.59505ZM0.589379 5.78797L0.102476 6.04375L0.257037 6.33797H0.589379V5.78797ZM0.226988 4.77035L0.347793 4.23378L-0.481111 4.04716L-0.312009 4.87981L0.226988 4.77035ZM4.74685 5.78797V6.33797L4.86766 5.2514L4.74685 5.78797ZM7.8499 3.99999H7.2999C7.2999 4.0411 7.29915 4.082 7.29767 4.12269L7.84731 4.14272L8.39694 4.16275C8.39891 4.10872 8.3999 4.05446 8.3999 3.99999H7.8499ZM7.78868 3.31238L7.2474 3.40997C7.28185 3.60103 7.2999 3.79817 7.2999 3.99999H7.8499H8.3999C8.3999 3.73242 8.37595 3.46997 8.32995 3.21479L7.78868 3.31238ZM7.78868 3.31238V2.76238H3.22927V3.31238V3.86238H7.78868V3.31238ZM3.22927 3.31238L3.13194 3.8537L7.74997 4.68404L7.84731 4.14272L7.94464 3.6014L3.3266 2.77106L3.22927 3.31238ZM7.83774 4.30831L7.28946 4.26487C7.28728 4.29238 7.28476 4.3198 7.28191 4.34711L7.82894 4.40418L8.37597 4.46125C8.37977 4.42488 8.38312 4.38837 8.38602 4.35176L7.83774 4.30831ZM0.170865 4.40418V4.95418H7.82894V4.40418V3.85418H0.170865V4.40418ZM0.170865 4.40418L0.717896 4.34711C0.706012 4.2332 0.699902 4.1174 0.699902 3.99999H0.149902H-0.400098C-0.400098 4.15559 -0.391999 4.30949 -0.376166 4.46125L0.170865 4.40418ZM0.149902 3.99999H0.699902C0.699902 2.17745 2.17736 0.699994 3.9999 0.699994V0.149994V-0.400006C1.56985 -0.400006 -0.400098 1.56994 -0.400098 3.99999H0.149902ZM3.9999 0.149994V0.699994C5.57059 0.699994 6.88617 1.79788 7.2187 3.26863L7.75516 3.14734L8.29162 3.02605C7.8482 1.06484 6.09577 -0.400006 3.9999 -0.400006V0.149994ZM2.30837 3.14734V3.69734H7.75516V3.14734V2.59734H2.30837V3.14734ZM2.29373 3.31141L2.84155 3.36032L2.85619 3.19626L2.30837 3.14734L1.76055 3.09843L1.7459 3.26249L2.29373 3.31141ZM7.83774 4.30831L7.93508 3.76699L2.39106 2.77009L2.29373 3.31141L2.19639 3.85272L7.7404 4.84963L7.83774 4.30831ZM7.80811 4.56922V4.01922H0.191691V4.56922V5.11922H7.80811V4.56922ZM7.80811 4.56922L7.26406 4.48859C7.02832 6.07928 5.65618 7.29999 3.9999 7.29999V7.84999V8.39999C6.20941 8.39999 8.03769 6.77192 8.35217 4.64985L7.80811 4.56922ZM3.9999 7.84999V7.29999C2.7887 7.29999 1.72923 6.64778 1.15458 5.67277L0.680751 5.95203L0.206924 6.2313C0.971158 7.52796 2.38339 8.39999 3.9999 8.39999V7.84999ZM5.48611 5.95203V5.40203H0.680751V5.95203V6.50203H5.48611V5.95203ZM5.50369 5.78992L4.95689 5.73063L4.93931 5.89274L5.48611 5.95203L6.0329 6.01132L6.05048 5.84921L5.50369 5.78992ZM0.195609 4.59505L0.0748246 5.13163L5.3829 6.32649L5.50369 5.78992L5.62447 5.25335L0.316394 4.05848L0.195609 4.59505ZM0.195609 4.59505L0.739106 4.51073C0.737963 4.50336 0.736843 4.49598 0.735748 4.48859L0.191691 4.56922L-0.352367 4.64985C-0.350907 4.6597 -0.349414 4.66954 -0.347888 4.67938L0.195609 4.59505ZM0.589379 5.78797L1.07628 5.53218C0.934145 5.26162 0.828571 4.96906 0.765985 4.66088L0.226988 4.77035L-0.312009 4.87981C-0.228374 5.29163 -0.087264 5.68257 0.102476 6.04375L0.589379 5.78797ZM0.589379 5.78797V6.33797H4.74685V5.78797V5.23797H0.589379V5.78797ZM4.74685 5.78797L4.86766 5.2514L0.347793 4.23378L0.226988 4.77035L0.106183 5.30692L4.62605 6.32454L4.74685 5.78797Z" fill="white" mask="url(#path-1-inside-1_4406_1668)"/>
</svg>
