<svg width="10" height="8" viewBox="0 0 10 8" fill="none" xmlns="http://www.w3.org/2000/svg">
<mask id="path-1-inside-1_4406_1636" fill="white">
<path d="M0.399853 6.94311C0.399853 4.5239 0.785523 3.12847 1.59193 2.32207C2.34924 1.55774 3.42211 1.34737 4.8526 1.31932C4.8526 0.7303 4.72638 0.0571289 5.21022 0.0571289C5.46266 0.0571289 7.384 1.31231 7.40504 1.27024L9.42455 2.43426C9.65595 2.57451 9.66296 2.9181 9.41754 3.05134L5.38552 5.37939C5.14711 5.51963 4.8526 5.34432 4.8526 5.07085V4.1803C2.99436 4.32756 1.91449 5.64585 1.06601 7.11841C0.883694 7.43396 0.399853 7.30073 0.399853 6.94311ZM2.0968 2.81993C1.57089 3.34585 1.26235 4.2364 1.15717 5.6739C2.12485 4.36963 3.39406 3.45103 5.21022 3.45103C5.66601 3.45103 5.56784 4.02603 5.56784 4.45378L8.534 2.7428L7.04741 1.88731L5.56784 1.02481C5.56784 1.45957 5.66601 2.03457 5.21022 2.03457C3.77973 2.03457 2.74193 2.17481 2.0968 2.81993Z"/>
</mask>
<path d="M1.59193 2.32207L2.30229 3.02592L2.29903 3.02917L1.59193 2.32207ZM4.8526 1.31932H5.8526V2.29991L4.8722 2.31913L4.8526 1.31932ZM7.40504 1.27024L6.51061 0.823025L6.98513 -0.126012L7.90441 0.403853L7.40504 1.27024ZM9.42455 2.43426L9.92392 1.56788L9.93345 1.57337L9.94285 1.57907L9.42455 2.43426ZM9.41754 3.05134L8.91751 2.18533L8.92889 2.17875L8.94044 2.17248L9.41754 3.05134ZM5.38552 5.37939L4.87849 4.51742L4.8855 4.51338L5.38552 5.37939ZM4.8526 4.1803L4.7736 3.18343L5.8526 3.09792V4.1803H4.8526ZM1.06601 7.11841L1.93247 7.61766L1.93188 7.61869L1.06601 7.11841ZM1.15717 5.6739L1.96027 6.26974L-0.0914451 9.0351L0.159836 5.60092L1.15717 5.6739ZM5.56784 4.45378L6.0675 5.32L4.56784 6.18505V4.45378H5.56784ZM8.534 2.7428L9.03278 1.87607L10.5371 2.74178L9.03366 3.60902L8.534 2.7428ZM7.04741 1.88731L6.54863 2.75406L6.5438 2.75124L7.04741 1.88731ZM5.56784 1.02481H4.56784V-0.715631L6.07146 0.160885L5.56784 1.02481ZM0.399853 6.94311H-0.600147C-0.600147 4.48697 -0.22489 2.72467 0.884819 1.61496L1.59193 2.32207L2.29903 3.02917C1.79594 3.53227 1.39985 4.56082 1.39985 6.94311H0.399853ZM1.59193 2.32207L0.881568 1.61823C1.93336 0.556697 3.36245 0.34835 4.83299 0.319516L4.8526 1.31932L4.8722 2.31913C3.48176 2.3464 2.76513 2.55878 2.30228 3.02591L1.59193 2.32207ZM4.8526 1.31932H3.8526C3.8526 1.19077 3.84606 1.08043 3.84086 0.902878C3.83648 0.753089 3.83304 0.549334 3.85704 0.348623C3.87914 0.163795 3.93805 -0.155757 4.16067 -0.442177C4.43015 -0.788869 4.82157 -0.942871 5.21022 -0.942871V0.0571289V1.05713C5.26625 1.05713 5.36132 1.04705 5.47112 0.996943C5.58484 0.945042 5.67558 0.867785 5.73977 0.785207C5.84998 0.643414 5.84972 0.528969 5.8429 0.586062C5.83797 0.627272 5.83585 0.702251 5.84001 0.844345C5.84335 0.95868 5.8526 1.15337 5.8526 1.31932H4.8526ZM5.21022 0.0571289V-0.942871C5.39178 -0.942871 5.53901 -0.895044 5.58843 -0.878804C5.661 -0.854955 5.72871 -0.826735 5.78361 -0.802239C5.89468 -0.752682 6.01638 -0.689878 6.13311 -0.626628C6.36957 -0.498501 6.64993 -0.333323 6.90868 -0.178161C7.19097 -0.0088876 7.40142 0.120361 7.60166 0.240017C7.69474 0.295635 7.75915 0.333167 7.79722 0.354119C7.82021 0.366775 7.81313 0.362012 7.79015 0.351667C7.78621 0.349894 7.73255 0.324925 7.65633 0.30451C7.62721 0.29671 7.51875 0.267756 7.37557 0.271638C7.28284 0.274152 6.76977 0.304708 6.51061 0.823025L7.40504 1.27024L8.29946 1.71745C8.03965 2.23708 7.52499 2.26832 7.42978 2.2709C7.28411 2.27485 7.17226 2.24535 7.13888 2.23641C7.05414 2.21371 6.98847 2.18408 6.96924 2.17543C6.91568 2.15132 6.86491 2.1239 6.83286 2.10627C6.76085 2.06663 6.66973 2.013 6.57578 1.95686C6.40197 1.853 6.11236 1.67635 5.88012 1.53708C5.62435 1.38371 5.37573 1.23772 5.18029 1.13182C5.08106 1.07805 5.01108 1.04312 4.96867 1.0242C4.94684 1.01446 4.94736 1.01575 4.96405 1.02123C4.97289 1.02414 4.99557 1.03131 5.02845 1.03838C5.057 1.04452 5.12259 1.05713 5.21022 1.05713V0.0571289ZM7.40504 1.27024L7.90441 0.403853L9.92392 1.56788L9.42455 2.43426L8.92517 3.30065L6.90566 2.13662L7.40504 1.27024ZM9.42455 2.43426L9.94285 1.57907C10.7797 2.08624 10.8741 3.39848 9.89463 3.93019L9.41754 3.05134L8.94044 2.17248C8.45184 2.43773 8.53221 3.06277 8.90625 3.28946L9.42455 2.43426ZM9.41754 3.05134L9.91756 3.91735L5.88555 6.2454L5.38552 5.37939L4.8855 4.51338L8.91751 2.18533L9.41754 3.05134ZM5.38552 5.37939L5.89254 6.24132C4.96535 6.78673 3.8526 6.09191 3.8526 5.07085H4.8526H5.8526C5.8526 4.59674 5.32886 4.25253 4.8785 4.51745L5.38552 5.37939ZM4.8526 5.07085H3.8526V4.1803H4.8526H5.8526V5.07085H4.8526ZM4.8526 4.1803L4.93159 5.17717C3.59953 5.28274 2.74978 6.19919 1.93247 7.61766L1.06601 7.11841L0.199551 6.61916C1.0792 5.09251 2.3892 3.37238 4.7736 3.18343L4.8526 4.1803ZM1.06601 7.11841L1.93188 7.61869C1.2374 8.82067 -0.600147 8.32284 -0.600147 6.94311H0.399853H1.39985C1.39985 6.27862 0.529992 6.04725 0.200146 6.61813L1.06601 7.11841ZM2.0968 2.81993L2.80391 3.52704C2.54 3.79095 2.25492 4.37454 2.1545 5.74687L1.15717 5.6739L0.159836 5.60092C0.269787 4.09825 0.601779 2.90075 1.3897 2.11283L2.0968 2.81993ZM1.15717 5.6739L0.354072 5.07805C1.4469 3.60511 2.98422 2.45103 5.21022 2.45103V3.45103V4.45103C3.8039 4.45103 2.80281 5.13415 1.96027 6.26974L1.15717 5.6739ZM5.21022 3.45103V2.45103C5.55662 2.45103 5.92393 2.57201 6.19948 2.87615C6.44007 3.14172 6.51654 3.44635 6.5467 3.62973C6.57831 3.82195 6.57819 4.00893 6.57589 4.13489C6.5727 4.30998 6.56784 4.34588 6.56784 4.45378H5.56784H4.56784C4.56784 4.38319 4.56985 4.31373 4.57167 4.25623C4.57364 4.19397 4.57534 4.14666 4.57622 4.09839C4.57707 4.05182 4.57685 4.01702 4.57572 3.9899C4.57458 3.9623 4.57285 3.95211 4.5732 3.95426C4.57342 3.95559 4.57788 3.98366 4.59534 4.02729C4.61333 4.0722 4.6493 4.14392 4.71729 4.21896C4.78871 4.29779 4.87946 4.36235 4.98148 4.40361C5.07962 4.44331 5.16209 4.45103 5.21022 4.45103V3.45103ZM5.56784 4.45378L5.06818 3.58756L8.03434 1.87658L8.534 2.7428L9.03366 3.60902L6.0675 5.32L5.56784 4.45378ZM8.534 2.7428L8.03522 3.60953L6.54864 2.75404L7.04741 1.88731L7.54619 1.02058L9.03278 1.87607L8.534 2.7428ZM7.04741 1.88731L6.5438 2.75124L5.06422 1.88874L5.56784 1.02481L6.07146 0.160885L7.55103 1.02338L7.04741 1.88731ZM5.56784 1.02481H6.56784C6.56784 1.13426 6.57273 1.17281 6.57589 1.34791C6.57819 1.47456 6.5783 1.66197 6.54681 1.85429C6.51679 2.03768 6.4406 2.34271 6.20008 2.60867C5.92439 2.91353 5.55668 3.03457 5.21022 3.03457V2.03457V1.03457C5.16211 1.03457 5.07952 1.04229 4.98121 1.08208C4.87899 1.12346 4.78813 1.18819 4.71669 1.26719C4.6487 1.34238 4.61283 1.41415 4.59496 1.4589C4.57761 1.50237 4.57325 1.53021 4.57309 1.53116C4.5728 1.53295 4.57456 1.52234 4.57571 1.49425C4.57685 1.46663 4.57708 1.43129 4.57622 1.38409C4.57534 1.33521 4.57363 1.28725 4.57166 1.2243C4.56984 1.16606 4.56784 1.09604 4.56784 1.02481H5.56784ZM5.21022 2.03457V3.03457C3.74387 3.03457 3.12242 3.20853 2.80391 3.52704L2.0968 2.81993L1.3897 2.11283C2.36143 1.1411 3.81559 1.03457 5.21022 1.03457V2.03457Z" fill="white" mask="url(#path-1-inside-1_4406_1636)"/>
</svg>
