<svg width="14" height="14" viewBox="0 0 14 14" fill="none" xmlns="http://www.w3.org/2000/svg">
<mask id="path-1-inside-1_4406_1660" fill="white">
<path fill-rule="evenodd" clip-rule="evenodd" d="M12.7273 7.42389C12.1341 7.72267 11.464 7.89091 10.7546 7.89091C8.32953 7.89091 6.36365 5.92504 6.36365 3.50001C6.36365 2.68706 6.58458 1.92572 6.96966 1.27274H1.01818C0.455856 1.27274 0 1.72859 0 2.29092V12.9818C0 13.5442 0.455855 14 1.01818 14H11.7091C12.2714 14 12.7273 13.5442 12.7273 12.9818V7.42389Z"/>
</mask>
<path d="M12.7273 7.42389H13.7273V5.80045L12.2774 6.5308L12.7273 7.42389ZM6.96966 1.27274L7.83103 1.78071L8.72034 0.272736H6.96966V1.27274ZM12.2774 6.5308C11.8206 6.76088 11.3042 6.89091 10.7546 6.89091V8.89091C11.6238 8.89091 12.4477 8.68445 13.1771 8.31698L12.2774 6.5308ZM10.7546 6.89091C8.88182 6.89091 7.36365 5.37275 7.36365 3.50001H5.36365C5.36365 6.47732 7.77725 8.89091 10.7546 8.89091V6.89091ZM7.36365 3.50001C7.36365 2.87057 7.53422 2.28402 7.83103 1.78071L6.10829 0.764757C5.63494 1.56742 5.36365 2.50356 5.36365 3.50001H7.36365ZM1.01818 2.27274H6.96966V0.272736H1.01818V2.27274ZM1 2.29092C1 2.28656 1.00069 2.28493 1.00102 2.28415C1.00163 2.2827 1.00295 2.28043 1.00533 2.27806C1.0077 2.27569 1.00996 2.27437 1.01141 2.27375C1.0122 2.27342 1.01383 2.27274 1.01818 2.27274V0.272736C-0.0964289 0.272736 -1 1.17631 -1 2.29092H1ZM1 12.9818V2.29092H-1V12.9818H1ZM1.01818 13C1.01383 13 1.0122 12.9993 1.01141 12.999C1.00996 12.9984 1.0077 12.9971 1.00532 12.9947C1.00295 12.9923 1.00163 12.99 1.00102 12.9886C1.00069 12.9878 1 12.9862 1 12.9818H-1C-1 14.0964 -0.0964284 15 1.01818 15V13ZM11.7091 13H1.01818V15H11.7091V13ZM11.7273 12.9818C11.7273 12.9862 11.7266 12.9878 11.7263 12.9886C11.7256 12.99 11.7243 12.9923 11.7219 12.9947C11.7196 12.9971 11.7173 12.9984 11.7159 12.999C11.7151 12.9993 11.7134 13 11.7091 13V15C12.8237 15 13.7273 14.0964 13.7273 12.9818H11.7273ZM11.7273 7.42389V12.9818H13.7273V7.42389H11.7273Z" fill="white" mask="url(#path-1-inside-1_4406_1660)"/>
<circle cx="10.2273" cy="3.5" r="3" stroke="white"/>
</svg>
